<svg width="280" height="280" viewBox="0 0 280 280" fill="none" xmlns="http://www.w3.org/2000/svg">
<circle cx="140" cy="140" r="131" fill="#94CB3C"/>
<circle cx="140" cy="140" r="93" fill="#B96D29"/>
<circle cx="140" cy="141" r="81" fill="#FCF5C9"/>
<mask id="mask0" mask-type="alpha" maskUnits="userSpaceOnUse" x="59" y="60" width="162" height="162">
<circle cx="140" cy="141" r="81" fill="#FCF5C9"/>
</mask>
<g mask="url(#mask0)">
<rect x="65" y="185" width="160" height="42" fill="#A2C449"/>
<circle cx="158" cy="122" r="12" fill="#57565A"/>
<path d="M129 168.5C125.4 168.1 125.833 164.667 126.5 163L150 155L175.5 125.5C177.5 124.3 180 125 181 125.5L213 156C214.2 157.2 213.5 159.167 213 160L201 173C199.8 175 201.5 175.5 202.5 175.5H217L213 185H179.5C176.3 184.6 176.5 181.5 177 180L192 162L171 142.5L154 161L129 168.5Z" fill="#57565A" stroke="#57565A"/>
<path d="M150 186V184H148H120H118V186C118 194.837 125.163 202 134 202C142.837 202 150 194.837 150 186Z" fill="#B96D29" stroke="#FCF5C9" stroke-width="4"/>
<path d="M137.075 86.9126C138.985 90.2743 137.807 94.5472 134.446 96.4565C131.084 98.3657 126.811 97.1884 124.902 93.8267C122.993 90.4651 121.782 77.1979 123.087 76.4571C124.391 75.7163 135.166 83.551 137.075 86.9126Z" fill="#A2C449"/>
<path d="M161.593 85.9598C159.571 89.2546 155.261 90.2862 151.966 88.2638C148.671 86.2414 147.639 81.931 149.662 78.6362C151.684 75.3413 162.719 67.8771 163.998 68.6618C165.276 69.4465 163.616 82.665 161.593 85.9598Z" fill="#A2C449"/>
<path d="M134 186.5V149M134 149L141 103.5M134 149L107 120M141 103.5L151.5 89M141 103.5L136 97.5M107 120V108.5M107 120L97 117" stroke="#B96D29" stroke-width="4" stroke-linecap="round" stroke-linejoin="round"/>
<path d="M112.706 98.1868C113.405 101.989 110.888 105.638 107.086 106.337C103.284 107.035 99.635 104.519 98.9364 100.717C98.2378 96.9145 101.454 83.9864 102.93 83.7153C104.405 83.4442 112.007 94.3845 112.706 98.1868Z" fill="#A2C449"/>
<path d="M90.447 108.834C93.9426 110.486 95.4376 114.658 93.7862 118.154C92.1348 121.649 87.9624 123.144 84.4669 121.493C80.9713 119.842 72.3493 109.686 72.9901 108.329C73.6308 106.973 86.9515 107.183 90.447 108.834Z" fill="#A2C449"/>
</g>
</svg>
